<svg xmlns="http://www.w3.org/2000/svg" xmlns:xlink="http://www.w3.org/1999/xlink" viewBox="0 0 264.6 264.6"><defs><radialGradient xlink:href="#a" id="f" cx="158.4" cy="578.1" r="52.4" fx="158.4" fy="578.1" gradientTransform="matrix(0 -4.03418 4.28018 0 -2332.2 942.2)" gradientUnits="userSpaceOnUse"/><radialGradient xlink:href="#b" id="g" cx="172.6" cy="600.7" r="65" fx="172.6" fy="600.7" gradientTransform="matrix(.67441 -1.16203 1.51283 .87801 -814.4 -47.8)" gradientUnits="userSpaceOnUse"/><radialGradient xlink:href="#c" id="h" cx="144" cy="51.3" r="67.1" fx="144" fy="51.3" gradientTransform="matrix(-2.3989 .67549 -.23008 -.81732 465 -26.4)" gradientUnits="userSpaceOnUse"/><radialGradient xlink:href="#d" id="e" cx="199.8" cy="628.4" r="52.4" fx="199.8" fy="628.4" gradientTransform="matrix(-3.10797 .87652 -.6315 -2.23914 1345.7 1374.2)" gradientUnits="userSpaceOnUse"/><linearGradient id="d"><stop offset="0" stop-color="#ff005f"/><stop offset="1" stop-color="#fc01d8"/></linearGradient><linearGradient id="c"><stop offset="0" stop-color="#780cff"/><stop offset="1" stop-color="#820bff" stop-opacity="0"/></linearGradient><linearGradient id="b"><stop offset="0" stop-color="#fc0"/><stop offset="1" stop-color="#fc0" stop-opacity="0"/></linearGradient><linearGradient id="a"><stop offset="0" stop-color="#fc0"/><stop offset=".1" stop-color="#fc0"/><stop offset=".6" stop-color="#fe4a05"/><stop offset=".7" stop-color="#ff0f3f"/><stop offset="1" stop-color="#fe0657" stop-opacity="0"/></linearGradient></defs><path fill="url(#e)" d="M204.2 18.1c-55.3 0-71.4.1-74.6.4a65.6 65.6 0 0 0-26 6.5A56.8 56.8 0 0 0 73 68.3c-1 6.2-1.2 7.5-1.3 39v43c0 55.3 0 71.4.4 74.6.9 11 2.6 18 6.3 25.5a55.7 55.7 0 0 0 36 29.5 93.8 93.8 0 0 0 19.3 2.6l70 .2c33.5 0 66.9 0 70-.2 9-.4 14.2-1.1 20-2.6 15.8-4 29-14.8 36.1-29.6a65.4 65.4 0 0 0 6.2-25c.2-2.3.3-38.7.3-75s0-72.5-.3-74.8a64.7 64.7 0 0 0-6.3-25.3c-3-6.2-6.4-10.8-11.3-15.6a57.1 57.1 0 0 0-32.3-15.2c-6.1-1-7.4-1.2-39-1.3z" transform="translate(-71.8 -18.1)"/><path fill="url(#f)" d="M204.2 18.1c-55.3 0-71.4.1-74.6.4a65.6 65.6 0 0 0-26 6.5A56.8 56.8 0 0 0 73 68.3c-1 6.2-1.2 7.5-1.3 39v43c0 55.3 0 71.4.4 74.6.9 11 2.6 18 6.3 25.5a55.7 55.7 0 0 0 36 29.5 93.8 93.8 0 0 0 19.3 2.6l70 .2c33.5 0 66.9 0 70-.2 9-.4 14.2-1.1 20-2.6 15.8-4 29-14.8 36.1-29.6a65.4 65.4 0 0 0 6.2-25c.2-2.3.3-38.7.3-75s0-72.5-.3-74.8a64.7 64.7 0 0 0-6.3-25.3c-3-6.2-6.4-10.8-11.3-15.6a57.1 57.1 0 0 0-32.3-15.2c-6.1-1-7.4-1.2-39-1.3z" transform="translate(-71.8 -18.1)"/><path fill="url(#g)" d="M204.2 18.1c-55.3 0-71.4.1-74.6.4a65.6 65.6 0 0 0-26 6.5A56.8 56.8 0 0 0 73 68.3c-1 6.2-1.2 7.5-1.3 39v43c0 55.3 0 71.4.4 74.6.9 11 2.6 18 6.3 25.5a55.7 55.7 0 0 0 36 29.5 93.8 93.8 0 0 0 19.3 2.6l70 .2c33.5 0 66.9 0 70-.2 9-.4 14.2-1.1 20-2.6 15.8-4 29-14.8 36.1-29.6a65.4 65.4 0 0 0 6.2-25c.2-2.3.3-38.7.3-75s0-72.5-.3-74.8a64.7 64.7 0 0 0-6.3-25.3c-3-6.2-6.4-10.8-11.3-15.6a57.1 57.1 0 0 0-32.3-15.2c-6.1-1-7.4-1.2-39-1.3z" transform="translate(-71.8 -18.1)"/><path fill="url(#h)" d="M204.2 18.1c-55.3 0-71.4.1-74.6.4a65.6 65.6 0 0 0-26 6.5A56.8 56.8 0 0 0 73 68.3c-1 6.2-1.2 7.5-1.3 39v43c0 55.3 0 71.4.4 74.6.9 11 2.6 18 6.3 25.5a55.7 55.7 0 0 0 36 29.5 93.8 93.8 0 0 0 19.3 2.6l70 .2c33.5 0 66.9 0 70-.2 9-.4 14.2-1.1 20-2.6 15.8-4 29-14.8 36.1-29.6a65.4 65.4 0 0 0 6.2-25c.2-2.3.3-38.7.3-75s0-72.5-.3-74.8a64.7 64.7 0 0 0-6.3-25.3c-3-6.2-6.4-10.8-11.3-15.6a57.1 57.1 0 0 0-32.3-15.2c-6.1-1-7.4-1.2-39-1.3z" transform="translate(-71.8 -18.1)"/><path fill="#fff" d="M132.3 34c-26.7 0-30 0-40.5.6A72.2 72.2 0 0 0 67.9 39c-6.5 2.5-12 5.9-17.4 11.4-5.5 5.4-8.9 11-11.4 17.4a71.8 71.8 0 0 0-4.5 23.8c-.5 10.5-.6 13.9-.6 40.6 0 26.7 0 30 .6 40.5a72.2 72.2 0 0 0 4.5 23.9c2.5 6.4 5.9 11.9 11.4 17.4 5.4 5.4 11 8.8 17.4 11.3 6.3 2.4 13.4 4.1 23.9 4.6 10.5.5 13.8.6 40.5.6 26.8 0 30-.1 40.6-.6a72.3 72.3 0 0 0 23.9-4.6c6.4-2.5 12-5.9 17.4-11.3 5.5-5.5 8.8-11 11.3-17.4 2.5-6.3 4.1-13.4 4.6-23.9.5-10.5.6-13.8.6-40.5s-.1-30-.6-40.6a72.8 72.8 0 0 0-4.6-23.8c-2.5-6.5-5.8-12-11.3-17.4A48 48 0 0 0 196.8 39c-6.3-2.4-13.5-4-24-4.5-10.4-.5-13.8-.6-40.5-.6zm-8.8 17.7h8.8c26.3 0 29.4 0 39.8.6 9.6.4 14.8 2 18.3 3.3 4.6 1.8 7.8 4 11.3 7.4 3.4 3.4 5.5 6.7 7.3 11.3 1.4 3.5 3 8.7 3.4 18.2.5 10.4.6 13.5.6 39.8 0 26.2-.1 29.3-.6 39.7-.4 9.5-2 14.7-3.4 18.2-1.8 4.6-3.9 7.9-7.3 11.3a30.4 30.4 0 0 1-11.3 7.4c-3.5 1.3-8.7 2.9-18.3 3.3a685 685 0 0 1-39.8.6 685 685 0 0 1-39.7-.6c-9.6-.4-14.8-2-18.3-3.3-4.6-1.8-7.8-4-11.3-7.4a30.5 30.5 0 0 1-7.3-11.3c-1.4-3.5-3-8.7-3.4-18.2-.5-10.4-.6-13.5-.6-39.8 0-26.2 0-29.3.6-39.7.4-9.6 2-14.8 3.4-18.2 1.7-4.6 3.9-7.9 7.3-11.3 3.5-3.5 6.7-5.6 11.3-7.4 3.5-1.3 8.7-3 18.3-3.4 9-.4 12.6-.5 31-.5zM185 68a11.8 11.8 0 1 0 0 23.6 11.8 11.8 0 0 0 0-23.6zm-52.6 13.8a50.5 50.5 0 1 0 0 101 50.5 50.5 0 0 0 0-101zm0 17.7a32.8 32.8 0 1 1 0 65.6 32.8 32.8 0 0 1 0-65.6z"/></svg>