<svg xmlns="http://www.w3.org/2000/svg" viewBox="0 0 264.6 264.6"><defs><radialGradient id="instagramGradient" cx="20%" cy="100%" r="150%"><stop offset="20%" stop-color="#ffc500"/><stop offset="60%" stop-color="#ff103e"/><stop offset="70%" stop-color="#fc01d8"/><stop offset="100%" stop-color="#7f0cfd"/></radialGradient><radialGradient id="gradTopRight" cx="20%" cy="-10%" r="150%"><stop offset="10%" stop-color="#7f0cfd"/><stop offset="40%" stop-color="#fc01d8" stop-opacity=".5"/><stop offset="70%" stop-color="#fc01d8" stop-opacity="0"/></radialGradient><clipPath id="circle-clip"><path fill="url(#e)" d="M204.2 18.1c-55.3 0-71.4.1-74.6.4a65.6 65.6 0 0 0-26 6.5A56.8 56.8 0 0 0 73 68.3c-1 6.2-1.2 7.5-1.3 39v43c0 55.3 0 71.4.4 74.6a65 65 0 0 0 6.3 25.5 55.7 55.7 0 0 0 36 29.5 93.8 93.8 0 0 0 19.3 2.6l70 .2c33.5 0 66.9 0 70-.2 9-.4 14.2-1.1 20-2.6a55 55 0 0 0 36.1-29.6 65.4 65.4 0 0 0 6.2-25c.2-2.3.3-38.7.3-75s0-72.5-.3-74.8a64.7 64.7 0 0 0-6.3-25.3c-3-6.2-6.4-10.8-11.3-15.6a57.1 57.1 0 0 0-32.3-15.2c-6.1-1-7.4-1.2-39-1.3z" transform="translate(-71.8 -18.1)"/></clipPath></defs><rect width="100%" height="100%" fill="url(#instagramGradient)" clip-path="url(#circle-clip)"/><rect width="100%" height="100%" fill="url(#gradTopRight)" clip-path="url(#circle-clip)"/><path fill="#fff" d="M132.3 34c-26.7 0-30 0-40.5.6A72.2 72.2 0 0 0 67.9 39c-6.5 2.5-12 5.9-17.4 11.4-5.5 5.4-8.9 11-11.4 17.4a71.8 71.8 0 0 0-4.5 23.8 677 677 0 0 0-.6 40.6c0 26.7 0 30 .6 40.5a72.2 72.2 0 0 0 4.5 23.9A48.6 48.6 0 0 0 50.5 214c5.4 5.4 11 8.8 17.4 11.3a73.8 73.8 0 0 0 23.9 4.6c10.5.5 13.8.6 40.5.6 26.8 0 30-.1 40.6-.6a72.3 72.3 0 0 0 23.9-4.6 48.7 48.7 0 0 0 28.7-28.7 71.2 71.2 0 0 0 4.6-23.9c.5-10.5.6-13.8.6-40.5s-.1-30-.6-40.6a72.8 72.8 0 0 0-4.6-23.8c-2.5-6.5-5.8-12-11.3-17.4A48 48 0 0 0 196.8 39c-6.3-2.4-13.5-4-24-4.5-10.4-.5-13.8-.6-40.5-.6zm-8.8 17.7h8.8c26.3 0 29.4 0 39.8.6 9.6.4 14.8 2 18.3 3.3A31.7 31.7 0 0 1 209 74.3c1.4 3.5 3 8.7 3.4 18.2.5 10.4.6 13.5.6 39.8 0 26.2-.1 29.3-.6 39.7-.4 9.5-2 14.7-3.4 18.2a30.6 30.6 0 0 1-7.3 11.3 30.4 30.4 0 0 1-11.3 7.4 55.7 55.7 0 0 1-18.3 3.3 685 685 0 0 1-39.8.6 685 685 0 0 1-39.7-.6c-9.6-.4-14.8-2-18.3-3.3-4.6-1.8-7.8-4-11.3-7.4a30.5 30.5 0 0 1-7.3-11.3c-1.4-3.5-3-8.7-3.4-18.2-.5-10.4-.6-13.5-.6-39.8 0-26.2 0-29.3.6-39.7.4-9.6 2-14.8 3.4-18.2 1.7-4.6 3.9-7.9 7.3-11.3 3.5-3.5 6.7-5.6 11.3-7.4a55 55 0 0 1 18.3-3.4c9-.4 12.6-.5 31-.5zM185 68a11.8 11.8 0 1 0 0 23.6 11.8 11.8 0 0 0 0-23.6zm-52.6 13.8a50.5 50.5 0 1 0 0 101 50.5 50.5 0 0 0 0-101zm0 17.7a32.8 32.8 0 1 1 0 65.6 32.8 32.8 0 0 1 0-65.6z"/></svg>