<svg xmlns="http://www.w3.org/2000/svg" fill="currentColor" class="jam jam-instagram" preserveAspectRatio="xMinYMin" viewBox="-0.25 -0.25 20.5 20.5">
    <defs>
        <radialGradient id="instagramGradient" cx="20%" cy="100%" r="150%">
            <stop offset="20%" stop-color="#ffc500"/>
            <stop offset="60%" stop-color="#ff103e"/>
            <stop offset="70%" stop-color="#fc01d8"/>
            <stop offset="100%" stop-color="#7f0cfd"/>
        </radialGradient>
        <radialGradient id="gradTopRight" cx="20%" cy="-10%" r="150%">
            <stop offset="10%" stop-color="#7f0cfd"/>
            <stop offset="40%" stop-color="#fc01d8" stop-opacity="0.5"/>
            <stop offset="70%" stop-color="#fc01d8" stop-opacity="0"/>
        </radialGradient>
        <clipPath id="circle-clip">
            <path d="M14 0H6a6 6 0 0 0-6 6v8a6 6 0 0 0 6 6h8a6 6 0 0 0 6-6V6a6 6 0 0 0-6-6zm4 14a4 4 0 0 1-4 4H6a4 4 0 0 1-4-4V6a4 4 0 0 1 4-4h8a4 4 0 0 1 4 4v8z"/>
            <path d="M10 5a5 5 0 0 0-5 5 5 5 0 0 0 5 5 5 5 0 0 0 5-5 5 5 0 0 0-5-5zm0 8a3 3 0 1 1 0-6 3 3 0 0 1 0 6z"/>
            <circle cx="15.2" cy="4.9" r="1.2"/>
        </clipPath>
    </defs>
    <rect width="100%" height="100%" fill="url(#instagramGradient)" clip-path="url(#circle-clip)" />
    <rect width="100%" height="100%" fill="url(#gradTopRight)" clip-path="url(#circle-clip)" />
  </svg>