<svg xmlns="http://www.w3.org/2000/svg" xml:space="preserve" id="svg12" x="0" y="0" version="1.1" viewBox="0 0 100 98" fill="currentColor"><path id="path47-5" d="M50.3 1a10.6 10.6 0 1 0 10.6 10.6C60.9 5.8 56.2 1 50.3 1zm-35 24.6c-1.9 0-3.8.1-5.5.6-1.2.3-2.3.8-3 1.5-.9 1-1 2.2-.6 3.3.4 1 1.5 1.7 2.7 2.1 2.6.9 5.5 1.1 8.2 1.6a3 3 0 0 1 1.4.6c.3.4.1 1-.4 1.2-.9.5-2 .5-3.1.4-.9 0-2-.1-2.7-.6-.6-.3-.6-.9-.5-1.4H5.7c0 .9.2 1.9.8 2.7.6.7 1.5 1.2 2.5 1.4 1.6.5 3.3.6 5 .6 2.3 0 4.6 0 6.8-.5 1.3-.3 2.6-.8 3.4-1.7 1.5-1.5 1.1-3.9-.8-5-1-.6-2.2-.9-3.4-1.2l-5.3-.9c-.6-.1-1.3-.2-1.8-.5s-.6-1 0-1.3c.7-.4 1.7-.4 2.6-.4.9 0 1.9.1 2.7.5.4.2.6.6.6 1h5.8c0-.7-.2-1.5-.7-2.1a5.2 5.2 0 0 0-2.8-1.6 61 61 0 0 0-5.8-.3zm12.5.4v13.8h16.9v-3H34v-2.7h9.5v-2.9H34V29h10.3v-3H27.8zm27.9 0h-7.8v13.8h5.9v-9.3l8.1 9.3H70V26h-5.9v9.2L55.7 26zm24.9 0L71 39.8h6.2l1.5-2.5h9.6l1.4 2.5h6.9L87.5 26h-6.9zm3.1 3.3 3 5h-6.1l3.1-5zM.7 43.8l.1 7.5 28.2-.1c1.4.3 2.3 1.2 2 3.4L13.6 84.9l5.6 5.3L46 43.8H.7zm53.7 0L80.8 90l5.8-5.2-17.5-30.3c-.3-2.1.5-3.1 2-3.4l28.2.1v-7.4H54.4zM50 51.5 25.2 93.9l6.6 3.2 16.5-27.9c.6-.5 1.1-.7 1.7-.7.6 0 1.2.2 1.8.7l16.5 28 6.8-3.5L50 51.5z"/></svg>