<?xml version="1.0" encoding="UTF-8"?><svg id="a" xmlns="http://www.w3.org/2000/svg" viewBox="0 0 22.53 22.53"><defs><style>.b{fill:#4d4d4d;}</style></defs><path class="b" d="M22.47,6.63c-.05-1.2-.25-2.02-.52-2.73-.29-.76-.73-1.43-1.3-2-.56-.57-1.25-1.02-1.99-1.3-.72-.28-1.54-.47-2.73-.52-1.21-.06-1.59-.07-4.65-.07s-3.44,.01-4.64,.07c-1.2,.05-2.02,.25-2.73,.52-.76,.29-1.44,.73-2,1.3-.57,.56-1.02,1.25-1.3,1.99-.28,.72-.47,1.54-.52,2.73-.06,1.21-.07,1.59-.07,4.65s.01,3.44,.07,4.64c.05,1.2,.25,2.02,.52,2.73,.29,.76,.73,1.43,1.3,2,.56,.57,1.25,1.02,1.99,1.3,.72,.28,1.54,.47,2.73,.52,1.2,.05,1.58,.07,4.64,.07s3.44-.01,4.64-.07c1.2-.05,2.02-.25,2.73-.52,1.51-.59,2.71-1.78,3.3-3.3,.28-.72,.47-1.54,.52-2.73,.05-1.2,.07-1.58,.07-4.64s0-3.44-.06-4.64Zm-2.03,9.2c-.05,1.1-.23,1.69-.39,2.09-.38,.98-1.16,1.76-2.14,2.14-.4,.15-.99,.34-2.09,.39-1.19,.05-1.55,.07-4.55,.07s-3.37-.01-4.55-.07c-1.1-.05-1.69-.23-2.09-.39-.49-.18-.93-.47-1.29-.84-.37-.37-.66-.81-.84-1.29-.15-.4-.34-.99-.39-2.09-.05-1.19-.07-1.55-.07-4.55s.01-3.37,.07-4.55c.05-1.1,.23-1.69,.39-2.09,.18-.49,.47-.93,.85-1.29,.37-.37,.81-.66,1.29-.84,.4-.15,.99-.34,2.09-.39,1.19-.05,1.55-.07,4.55-.07s3.37,.01,4.55,.07c1.1,.05,1.69,.23,2.09,.39,.49,.18,.93,.47,1.29,.84,.37,.37,.66,.81,.84,1.29,.15,.4,.34,.99,.39,2.09,.05,1.19,.07,1.55,.07,4.55s-.01,3.36-.07,4.55Z"/><path class="b" d="M11.27,5.48c-3.2,0-5.79,2.59-5.79,5.79s2.59,5.79,5.79,5.79,5.79-2.59,5.79-5.79-2.59-5.79-5.79-5.79Zm0,9.54c-2.07,0-3.75-1.68-3.75-3.75s1.68-3.75,3.75-3.75,3.75,1.68,3.75,3.75-1.68,3.75-3.75,3.75Z"/><path class="b" d="M18.64,5.25c0,.75-.61,1.35-1.35,1.35s-1.35-.61-1.35-1.35,.61-1.35,1.35-1.35,1.35,.6,1.35,1.35Z"/></svg>